<?xml version="1.0" encoding="UTF-8" standalone="no"?>
<!-- Created with Inkscape (http://www.inkscape.org/) -->

<svg
   xmlns:dc="http://purl.org/dc/elements/1.1/"
   xmlns:cc="http://creativecommons.org/ns#"
   xmlns:rdf="http://www.w3.org/1999/02/22-rdf-syntax-ns#"
   xmlns:svg="http://www.w3.org/2000/svg"
   xmlns="http://www.w3.org/2000/svg"
   xmlns:sodipodi="http://sodipodi.sourceforge.net/DTD/sodipodi-0.dtd"
   xmlns:inkscape="http://www.inkscape.org/namespaces/inkscape"
   id="svg2"
   version="1.1"
   inkscape:version="0.91 r13725"
   xml:space="preserve"
   width="88.204712"
   height="29.43115"
   viewBox="0 0 88.204708 29.431151"
   sodipodi:docname="backstage.svg"><metadata
     id="metadata8"><rdf:RDF><cc:Work
         rdf:about=""><dc:format>image/svg+xml</dc:format><dc:type
           rdf:resource="http://purl.org/dc/dcmitype/StillImage" /><dc:title></dc:title></cc:Work></rdf:RDF></metadata><defs
     id="defs6"><clipPath
       clipPathUnits="userSpaceOnUse"
       id="clipPath20"><path
         d="m 0,595.28 841.89,0 L 841.89,0 0,0 0,595.28 Z"
         id="path22"
         inkscape:connector-curvature="0" /></clipPath></defs><sodipodi:namedview
     pagecolor="#ffffff"
     bordercolor="#666666"
     borderopacity="1"
     objecttolerance="10"
     gridtolerance="10"
     guidetolerance="10"
     inkscape:pageopacity="0"
     inkscape:pageshadow="2"
     inkscape:window-width="1871"
     inkscape:window-height="929"
     id="namedview4"
     showgrid="false"
     fit-margin-top="2"
     fit-margin-left="2"
     fit-margin-right="2"
     fit-margin-bottom="2"
     inkscape:zoom="3.5882748"
     inkscape:cx="52.046229"
     inkscape:cy="24.845129"
     inkscape:window-x="170"
     inkscape:window-y="63"
     inkscape:window-maximized="0"
     inkscape:current-layer="g10" /><g
     id="g10"
     inkscape:groupmode="layer"
     inkscape:label="newvoices-hh_2012_black"
     transform="matrix(1.25,0,0,-1.25,-38.470269,486.83377)"><g
       id="g12"
       transform="translate(141.2119,255.2588)" /><g
       id="g16"
       transform="matrix(0.10813653,0,0,0.10813653,26.078514,345.92442)"><g
         id="g18"
         clip-path="url(#clipPath20)"><g
           id="g24"
           transform="translate(191.3926,321.1885)" /><g
           id="g28"
           transform="translate(291.1201,276.8564)" /><g
           id="g32"
           transform="translate(389.0288,367.9443)" /><g
           id="g36"
           transform="translate(521.6143,321.1885)" /><g
           id="g42"
           transform="translate(661.5811,314.6709)" /><g
           id="g46"
           transform="translate(704.043,321.1885)" /><g
           id="g50"
           transform="translate(766.7139,328.084)" /><g
           id="g54"
           transform="translate(358.9482,311.6797)" /><g
           id="g58"
           transform="translate(363.3608,239.5127)" /><g
           id="g62"
           transform="translate(786.1875,239.4395)"><path
             d="m -105.23163,5.009728 c -89.461,-31.908999 -283.93048,-83.937793 -324.77648,3.457207 77.052,-87.134 333.828483,-0.2292071 324.77648,-3.457207"
             style="fill:#1a171b;fill-opacity:1;fill-rule:nonzero;stroke:none"
             id="path64"
             inkscape:connector-curvature="0"
             sodipodi:nodetypes="ccc" /></g><g
           id="g66"
           transform="translate(53.0264,383.1709)"><path
             d="m 5.3507607,-16.944076 c 93.7630003,20.4240003 270.5999993,50.562 289.0869993,-40.584 -43.828,94.778 -295.9869993,39.081 -289.0869993,40.584"
             style="fill:#1a171b;fill-opacity:1;fill-rule:nonzero;stroke:none"
             id="path68"
             inkscape:connector-curvature="0" /></g></g></g><g
       transform="matrix(0.15628434,0,0,-0.15628434,22.86529,438.91068)"
       style="font-style:normal;font-variant:normal;font-weight:normal;font-stretch:normal;font-size:90px;line-height:125%;font-family:Philosopher;-inkscape-font-specification:Philosopher;letter-spacing:-0.01px;word-spacing:0px;fill:#000000;fill-opacity:1;stroke:none;stroke-width:1px;stroke-linecap:butt;stroke-linejoin:miter;stroke-opacity:1"
       id="flowRoot4196"><path
         d="m 110.33547,418.48929 q -4.59,0 -7.56,-1.44 -2.970001,-1.44 -4.590001,-3.51 l -0.45,0 -3.15,4.05 -4.5,0 0,-48.6 q 0,-4.59 -1.26,-6.75 -1.26,-2.25 -5.04,-2.25 l -1.8,0 0,-1.8 8.1,0 q 3.33,0 4.95,0.9 1.71,0.81 2.43,3.06 0.72,2.25 0.72,6.84 l 0,8.1 q 2.610001,-1.26 5.220001,-1.98 2.61,-0.72 6.03,-0.72 8.37,0 12.69,6.21 4.41,6.21 4.41,15.84 0,9.54 -4.23,15.84 -4.23,6.21 -11.97,6.21 z m -2.7,-3.6 q 5.13,0 7.74,-5.04 2.61,-5.13 2.61,-13.41 0,-8.37 -2.79,-13.41 -2.7,-5.04 -8.46,-5.04 -1.89,0 -3.87,0.72 -1.98,0.72 -4.680001,1.98 l 0,28.8 q 1.62,2.43 3.780001,3.96 2.25,1.44 5.67,1.44 z"
         id="path4156"
         inkscape:connector-curvature="0" /><path
         d="m 147.26485,418.48929 q -2.88,0 -5.85,-1.17 -2.97,-1.26 -5.13,-4.05 -2.07,-2.79 -2.07,-7.38 0,-6.84 6.3,-9.72 6.39,-2.88 16.65,-2.88 l 2.7,0 q 0,-8.82 -2.43,-12.06 -2.43,-3.24 -7.02,-3.24 -4.05,0 -6.48,1.71 -2.43,1.71 -3.42,5.94 l -4.05,0 q 0,-3.06 0.36,-4.77 0.36,-1.8 1.89,-3.33 1.62,-1.62 5.31,-2.34 3.78,-0.81 8.19,-0.81 7.29,0 11.52,3.96 4.23,3.87 4.23,14.94 l 0,24.3 -4.5,0 -3.15,-4.05 -0.45,0 q -1.62,2.07 -4.77,3.51 -3.15,1.44 -7.83,1.44 z m 4.05,-4.05 q 2.97,0 4.95,-1.44 1.98,-1.44 3.6,-3.96 l 0,-12.15 -2.7,0 q -6.66,0 -10.53,2.52 -3.87,2.43 -3.87,6.48 0,4.14 2.43,6.39 2.52,2.16 6.12,2.16 z"
         id="path4158"
         inkscape:connector-curvature="0" /><path
         d="m 197.78703,418.48929 q -6.48,0 -10.98,-2.88 -4.41,-2.97 -6.66,-7.92 -2.16,-5.04 -2.16,-11.25 0,-6.21 2.16,-11.16 2.25,-5.04 6.66,-7.92 4.5,-2.97 10.98,-2.97 9.9,0 13.05,3.15 1.53,1.53 1.89,3.78 0.36,2.16 0.36,7.92 l -1.8,0 q -0.36,-5.58 -3.51,-8.37 -3.15,-2.88 -8.19,-2.88 -6.48,0 -9.81,5.13 -3.24,5.13 -3.24,13.32 0,8.19 3.24,13.32 3.33,5.13 9.81,5.13 4.59,0 7.56,-1.71 2.97,-1.8 5.49,-5.49 l 1.8,1.35 q -2.97,5.04 -7.02,7.29 -4.05,2.16 -9.63,2.16 z"
         id="path4160"
         inkscape:connector-curvature="0" /><path
         d="m 255.775,418.48929 q -7.65,0 -13.05,-7.2 l -10.8,-14.4 0,20.7 -8.1,0 0,-48.6 q 0,-4.59 -1.26,-6.75 -1.26,-2.25 -5.04,-2.25 l -1.8,0 0,-1.8 8.1,0 q 3.33,0 4.95,0.9 1.71,0.81 2.43,3.06 0.72,2.25 0.72,6.84 l 0,26.55 11.25,-14.4 q 2.34,-2.88 4.95,-4.32 2.61,-1.53 6.75,-1.53 l 2.7,0 0,2.25 q -2.43,0 -4.68,0.99 -2.25,0.99 -3.87,3.06 l -9.9,12.6 11.25,14.4 q 2.61,3.42 4.86,5.13 2.34,1.71 5.04,2.16 l 0,1.71 q -1.98,0.9 -4.5,0.9 z"
         id="path4162"
         inkscape:connector-curvature="0" /><path
         d="m 281.53876,418.48929 q -10.35,0 -13.95,-3.6 -1.53,-1.53 -1.89,-3.42 -0.36,-1.98 -0.36,-6.03 l 1.8,0 q 0.81,4.5 3.87,7.02 3.15,2.43 8.73,2.43 4.95,0 7.38,-1.71 2.52,-1.71 2.52,-4.59 0,-2.61 -1.98,-4.5 -1.89,-1.89 -6.12,-3.6 l -5.4,-2.25 q -5.4,-2.16 -8.1,-5.04 -2.7,-2.88 -2.7,-7.11 0,-5.49 4.14,-8.55 4.14,-3.15 10.71,-3.15 9.9,0 13.5,3.6 1.53,1.53 1.89,3.42 0.36,1.89 0.36,6.03 l -1.8,0 q -0.72,-4.5 -3.78,-6.93 -3.06,-2.52 -8.37,-2.52 -4.23,0 -6.66,1.8 -2.34,1.71 -2.34,4.5 0,4.68 7.2,7.65 l 5.4,2.25 q 6.12,2.52 8.91,5.4 2.79,2.79 2.79,7.2 0,5.49 -4.41,8.64 -4.41,3.06 -11.34,3.06 z"
         id="path4164"
         inkscape:connector-curvature="0" /><path
         d="m 319.98687,418.48929 q -5.04,0 -7.92,-2.88 -2.88,-2.88 -2.88,-8.82 l 0,-27.9 -6.3,0 0,-3.6 6.3,0 0,-8.1 4.5,-5.4 3.6,0 0,13.5 10.8,0 0,3.6 -10.8,0 0,27.9 q 0,8.1 6.3,8.1 2.16,0 3.6,-0.45 1.53,-0.45 3.15,-1.35 l 0.9,1.8 q -2.07,1.53 -4.59,2.61 -2.52,0.99 -6.66,0.99 z"
         id="path4166"
         inkscape:connector-curvature="0" /><path
         d="m 347.95703,418.48929 q -2.88,0 -5.85,-1.17 -2.97,-1.26 -5.13,-4.05 -2.07,-2.79 -2.07,-7.38 0,-6.84 6.3,-9.72 6.39,-2.88 16.65,-2.88 l 2.7,0 q 0,-8.82 -2.43,-12.06 -2.43,-3.24 -7.02,-3.24 -4.05,0 -6.48,1.71 -2.43,1.71 -3.42,5.94 l -4.05,0 q 0,-3.06 0.36,-4.77 0.36,-1.8 1.89,-3.33 1.62,-1.62 5.31,-2.34 3.78,-0.81 8.19,-0.81 7.29,0 11.52,3.96 4.23,3.87 4.23,14.94 l 0,24.3 -4.5,0 -3.15,-4.05 -0.45,0 q -1.62,2.07 -4.77,3.51 -3.15,1.44 -7.83,1.44 z m 4.05,-4.05 q 2.97,0 4.95,-1.44 1.98,-1.44 3.6,-3.96 l 0,-12.15 -2.7,0 q -6.66,0 -10.53,2.52 -3.87,2.43 -3.87,6.48 0,4.14 2.43,6.39 2.52,2.16 6.12,2.16 z"
         id="path4168"
         inkscape:connector-curvature="0" /><path
         d="m 396.76921,435.58929 q -9.09,0 -14.49,-3.33 -5.31,-3.33 -5.31,-10.62 0,-4.14 2.79,-7.2 2.79,-3.06 7.11,-4.5 -3.6,-1.98 -3.6,-5.4 0,-1.8 0.81,-2.79 0.81,-0.99 2.34,-2.16 -2.88,-1.44 -4.86,-4.5 -1.89,-3.06 -1.89,-7.2 0,-13.5 17.1,-13.5 l 16.65,0 0,2.25 -5.85,0.9 0,0.45 q 2.79,1.44 4.5,4.05 1.8,2.52 1.8,5.85 0,13.5 -17.1,13.5 -9.45,0 -9.45,3.15 0,3.15 9.45,3.15 8.73,0 14.22,3.51 5.58,3.42 5.58,10.44 0,7.29 -5.4,10.62 -5.31,3.33 -14.4,3.33 z m 0,-37.35 q 4.05,0 6.48,-2.43 2.52,-2.52 2.52,-7.92 0,-5.13 -2.52,-7.74 -2.43,-2.61 -6.48,-2.61 -4.05,0 -6.57,2.52 -2.43,2.43 -2.43,7.83 0,5.4 2.43,7.92 2.52,2.43 6.57,2.43 z m 0,33.75 q 5.4,0 8.55,-2.61 3.15,-2.52 3.15,-7.74 0,-9 -10.8,-10.35 l -4.95,-0.45 q -3.69,1.44 -5.67,4.05 -1.98,2.61 -1.98,6.75 0,5.22 3.15,7.74 3.15,2.61 8.55,2.61 z"
         id="path4170"
         inkscape:connector-curvature="0" /><path
         d="m 441.86611,418.48929 q -6.12,0 -10.35,-2.88 -4.23,-2.97 -6.39,-7.92 -2.16,-5.04 -2.16,-11.25 0,-6.12 2.16,-11.16 2.16,-5.04 6.21,-7.92 4.14,-2.97 9.63,-2.97 9.09,0 13.5,5.13 4.5,5.04 4.5,14.67 l -0.18,3.6 -27.27,0 q 0,7.56 3.24,12.33 3.24,4.77 8.91,4.77 4.23,0 7.11,-1.8 2.97,-1.8 5.49,-5.4 l 1.8,1.35 q -2.97,4.95 -6.93,7.2 -3.96,2.25 -9.27,2.25 z m 8.55,-24.3 q 0,-7.92 -2.34,-12.06 -2.34,-4.14 -7.11,-4.14 -2.7,0 -4.86,2.16 -2.16,2.07 -3.42,5.76 -1.17,3.69 -1.17,8.28 l 18.9,0 z"
         id="path4172"
         inkscape:connector-curvature="0" /></g></g></svg>