<?xml version="1.0" standalone="no"?>
<!DOCTYPE svg PUBLIC "-//W3C//DTD SVG 20010904//EN"
 "http://www.w3.org/TR/2001/REC-SVG-20010904/DTD/svg10.dtd">
<svg version="1.0" xmlns="http://www.w3.org/2000/svg"
 width="16.000000pt" height="16.000000pt" viewBox="0 0 16.000000 16.000000"
 preserveAspectRatio="xMidYMid meet">
<metadata>
Created by potrace 1.11, written by Peter Selinger 2001-2013
</metadata>
<g transform="translate(0.000000,16.000000) scale(0.000862,-0.000862)"
fill="#000000" stroke="none">
<path d="M13488 12755 c-3 -3 -99 -7 -214 -9 -115 -2 -209 -5 -209 -6 0 -1
-30 -3 -66 -5 -36 -2 -90 -6 -120 -9 -30 -3 -76 -8 -104 -11 -27 -3 -70 -8
-94 -11 -24 -2 -62 -7 -85 -9 -22 -3 -52 -7 -66 -10 -22 -5 -54 -10 -125 -19
-27 -4 -105 -17 -130 -22 -96 -20 -170 -34 -208 -39 -15 -2 -42 -8 -60 -14
-17 -6 -45 -12 -62 -15 -16 -2 -31 -5 -32 -6 -4 -4 -15 -6 -66 -14 -26 -5 -50
-12 -53 -17 -3 -5 -9 -7 -13 -5 -4 3 -57 -8 -117 -24 -60 -17 -118 -32 -129
-34 -32 -6 -332 -95 -415 -122 -41 -14 -82 -27 -90 -29 -15 -3 -332 -111 -360
-122 -8 -3 -19 -7 -25 -9 -24 -6 -465 -176 -540 -208 -41 -18 -115 -49 -205
-86 -41 -17 -95 -41 -120 -52 -25 -11 -85 -38 -135 -60 -122 -53 -167 -74
-435 -201 -36 -17 -67 -32 -70 -32 -5 -1 -457 -227 -507 -253 -13 -7 -31 -16
-40 -20 -10 -5 -52 -27 -93 -49 -41 -22 -115 -62 -165 -88 -49 -27 -115 -61
-145 -78 -30 -16 -59 -33 -65 -38 -5 -5 -15 -9 -22 -9 -7 0 -22 -8 -33 -17
-11 -10 -24 -17 -28 -16 -4 1 -15 -6 -24 -14 -10 -9 -18 -12 -18 -7 0 5 -4 4
-8 -2 -4 -6 -47 -33 -97 -60 -49 -27 -98 -53 -107 -59 -9 -5 -40 -23 -69 -39
-85 -46 -94 -51 -99 -56 -9 -9 -84 -51 -112 -63 -16 -6 -28 -15 -28 -19 0 -4
-4 -8 -9 -8 -5 0 -50 -25 -100 -55 -51 -30 -96 -55 -101 -55 -6 0 -10 -4 -10
-9 0 -5 -8 -11 -17 -15 -19 -6 -33 -13 -168 -96 -49 -30 -98 -59 -107 -65
-104 -61 -214 -131 -220 -139 -4 -6 -8 -7 -8 -2 0 5 -8 2 -17 -6 -20 -17 -242
-158 -249 -158 -3 0 -10 -5 -17 -10 -7 -6 -32 -23 -57 -39 -72 -45 -198 -124
-228 -144 -15 -9 -35 -20 -44 -23 -10 -4 -18 -11 -18 -16 0 -5 -4 -7 -9 -4 -5
4 -11 2 -13 -3 -1 -4 -66 -49 -143 -99 -77 -50 -146 -96 -153 -102 -7 -7 -23
-17 -35 -23 -44 -23 -502 -330 -505 -338 -2 -5 -8 -9 -13 -9 -11 0 -113 -71
-117 -82 -2 -5 -8 -8 -13 -8 -9 0 -173 -109 -280 -187 -26 -18 -51 -33 -57
-33 -6 0 -12 -4 -14 -8 -3 -7 -79 -63 -142 -105 -10 -6 -25 -18 -32 -25 -8 -7
-14 -11 -14 -7 0 4 -6 0 -13 -7 -8 -7 -53 -40 -101 -73 -48 -33 -115 -80 -150
-105 -35 -25 -73 -52 -86 -60 -58 -39 -176 -125 -180 -131 -3 -3 -15 -9 -27
-13 -13 -4 -23 -11 -23 -16 0 -4 -20 -21 -45 -37 -25 -15 -45 -32 -45 -36 0
-5 -4 -6 -9 -3 -5 3 -11 -1 -15 -9 -3 -8 -12 -15 -20 -15 -8 0 -16 -4 -18 -8
-1 -4 -34 -30 -73 -57 -38 -27 -72 -52 -75 -55 -3 -3 -27 -20 -55 -39 -62 -43
-406 -292 -422 -306 -6 -5 -38 -29 -70 -52 -87 -62 -206 -150 -220 -162 -7 -6
-15 -11 -17 -11 -6 0 -37 -24 -61 -47 -8 -7 -17 -13 -20 -13 -4 0 -19 -10 -34
-22 -32 -27 -49 -40 -191 -144 -108 -80 -121 -90 -145 -111 -7 -7 -16 -13 -20
-13 -8 0 -89 -63 -93 -72 -2 -5 -10 -8 -17 -8 -7 0 -15 -4 -17 -8 -1 -4 -21
-21 -43 -37 -22 -17 -44 -34 -50 -38 -5 -4 -127 -95 -270 -203 -143 -107 -274
-206 -292 -220 -17 -14 -34 -26 -37 -25 -3 1 -14 -7 -24 -16 -10 -10 -33 -29
-52 -43 -31 -23 -92 -70 -115 -88 -13 -10 -124 -92 -159 -117 -15 -11 -44 -35
-64 -52 -20 -18 -40 -33 -44 -33 -3 0 -26 -16 -50 -36 -64 -53 -70 -57 -103
-78 -17 -11 -43 -32 -60 -48 -16 -15 -33 -28 -37 -28 -5 0 -16 -7 -25 -16 -10
-9 -74 -58 -143 -110 -69 -52 -136 -104 -150 -115 -14 -11 -46 -34 -72 -52
-63 -43 -64 -67 0 -31 26 15 59 36 74 46 14 10 31 18 37 18 6 0 11 4 11 9 0 5
13 14 30 21 16 7 30 16 30 20 0 4 8 10 17 14 17 5 42 20 67 39 6 4 45 29 86
56 340 217 646 416 650 421 3 4 15 10 28 14 12 4 22 12 22 17 0 5 5 9 10 9 6
0 23 9 38 19 52 37 177 114 177 110 1 -2 19 11 42 29 22 17 44 32 47 32 3 0
44 25 90 55 46 30 88 55 95 55 6 0 11 5 11 10 0 6 5 10 11 10 5 0 36 17 67 38
32 20 66 42 77 49 40 24 207 129 233 146 15 9 35 20 45 23 9 4 17 10 17 15 0
5 3 8 7 7 5 -1 26 9 48 23 22 14 60 37 85 50 25 13 47 27 50 30 3 3 28 19 55
34 28 16 53 34 57 40 4 5 8 7 8 3 0 -4 17 4 37 18 33 22 191 116 326 193 23
13 45 28 48 33 3 5 10 10 15 10 7 -1 365 201 424 239 8 5 26 15 40 21 14 7 49
27 77 46 29 18 53 29 53 25 0 -4 4 -3 8 2 4 6 25 20 47 32 22 11 58 31 80 44
151 85 287 159 294 159 5 0 14 7 21 15 7 8 16 12 21 9 5 -3 9 -2 9 3 0 4 10
13 23 18 60 29 192 101 195 108 2 4 12 7 22 7 10 0 20 3 22 8 2 4 30 21 63 37
33 17 62 33 65 36 3 3 48 27 100 54 226 114 446 228 458 237 6 6 12 8 12 4 0
-3 17 4 38 17 45 28 149 78 158 76 4 0 10 3 13 8 3 6 53 32 111 60 58 28 179
87 270 131 91 43 199 95 240 115 41 19 113 53 160 75 47 22 108 50 135 62 28
12 73 32 100 45 28 13 70 32 95 43 25 11 68 30 95 43 28 12 52 23 55 24 8 3
83 35 115 50 17 7 68 30 115 50 47 20 99 43 115 50 56 25 350 147 360 149 6 2
24 8 40 15 17 7 30 11 30 9 1 -2 12 4 25 12 14 9 50 25 80 37 115 44 236 91
255 98 11 5 22 9 25 10 3 1 14 5 25 10 74 30 115 44 115 37 0 -4 4 -2 8 4 5 8
140 62 172 70 3 0 14 4 25 8 11 4 34 12 50 18 17 6 44 16 60 23 17 7 93 34
170 60 77 26 163 56 190 67 28 11 52 20 55 20 3 0 10 2 15 4 6 2 66 21 135 43
69 22 161 52 205 66 44 15 88 28 98 31 38 9 56 14 152 44 55 17 107 33 115 35
8 2 38 11 65 19 52 15 377 104 408 112 9 2 26 6 38 9 11 2 29 7 39 10 10 3 28
8 39 10 51 12 60 14 95 23 20 6 36 8 36 5 0 -3 6 -1 13 5 6 5 26 13 42 15 17
3 39 8 50 10 11 3 31 8 45 11 14 3 36 8 50 10 14 2 45 9 70 16 25 7 56 14 70
16 14 1 77 14 142 28 64 13 131 27 150 29 18 3 33 6 33 7 0 2 20 6 69 14 21 4
48 8 60 11 40 9 199 35 246 40 19 2 59 9 88 14 29 6 56 10 60 10 4 -1 10 0 15
1 14 5 23 6 92 14 39 5 77 9 85 11 8 1 42 6 75 9 33 4 78 9 100 12 43 6 102
12 200 19 33 2 83 6 110 9 311 33 987 38 1270 10 28 -3 77 -7 110 -9 69 -6
159 -15 280 -30 87 -11 100 -13 100 -15 0 -1 11 -3 25 -4 32 -3 115 -16 143
-22 12 -3 40 -7 61 -10 22 -3 47 -9 55 -13 9 -4 23 -7 31 -6 8 1 26 -3 39 -7
13 -5 40 -11 60 -14 20 -3 106 -24 191 -46 85 -22 160 -41 165 -42 6 -2 17 -5
25 -9 8 -3 74 -24 145 -46 130 -42 303 -105 382 -142 24 -10 45 -19 48 -19 2
0 43 -18 90 -40 47 -22 90 -40 95 -40 6 0 10 -4 10 -10 0 -5 6 -10 14 -10 14
0 118 -53 144 -73 6 -5 12 -7 12 -4 0 3 34 -14 75 -38 42 -25 79 -45 84 -45 5
0 14 -7 21 -16 8 -8 27 -22 44 -30 61 -30 76 -39 76 -46 0 -5 5 -8 10 -8 9 0
127 -76 140 -90 3 -3 12 -9 21 -15 51 -31 267 -195 319 -242 8 -7 39 -35 69
-61 144 -125 272 -250 391 -382 41 -45 87 -95 101 -110 15 -16 40 -45 55 -66
16 -21 36 -46 44 -55 16 -19 17 -20 70 -89 19 -25 37 -47 40 -50 3 -3 17 -21
30 -40 14 -19 28 -39 32 -45 40 -50 92 -128 90 -132 -2 -3 1 -9 6 -12 8 -5 94
-132 139 -206 118 -193 301 -531 295 -547 -1 -5 2 -8 6 -8 5 0 15 -18 22 -40
7 -22 16 -40 21 -40 4 0 10 -12 14 -27 4 -16 5 -28 3 -28 -1 0 7 -14 20 -32
12 -17 22 -34 22 -38 0 -3 9 -25 19 -48 41 -91 71 -167 71 -181 0 -7 7 -16 15
-19 11 -5 12 -1 5 17 -4 12 -11 47 -15 76 -4 29 -9 62 -11 74 -5 23 -11 62
-20 116 -3 19 -7 44 -9 55 -2 11 -7 38 -10 60 -3 22 -12 71 -20 110 -8 38 -17
81 -19 95 -3 14 -17 81 -31 150 -14 69 -28 136 -31 150 -9 45 -13 64 -23 105
-6 22 -29 117 -51 210 -23 94 -46 184 -51 200 -16 51 -60 209 -64 230 -3 11
-9 31 -14 45 -5 14 -24 72 -41 130 -18 58 -41 127 -51 154 -10 27 -19 55 -19
62 0 8 -4 22 -9 32 -9 16 -20 44 -27 67 -11 38 -50 141 -54 145 -3 3 -13 30
-24 60 -10 30 -24 69 -31 85 -102 242 -127 298 -208 466 -31 63 -60 118 -64
122 -4 4 -8 13 -9 21 -1 7 -12 30 -26 52 -13 21 -30 53 -38 69 -8 17 -17 32
-20 35 -6 6 -18 28 -55 98 -14 28 -33 56 -41 63 -8 6 -14 16 -14 21 0 5 -13
29 -30 53 -16 24 -30 48 -30 53 0 6 -3 12 -8 14 -4 2 -29 35 -54 73 -73 109
-105 154 -175 245 -6 8 -46 58 -89 110 -43 52 -85 104 -94 114 -37 47 -322
328 -392 386 -43 35 -78 68 -78 72 0 4 -5 8 -10 8 -6 0 -20 9 -32 20 -12 11
-40 32 -62 47 -23 15 -43 31 -46 34 -12 15 -216 149 -226 149 -7 0 -14 4 -16
9 -3 10 -98 67 -183 109 -27 14 -53 30 -56 35 -3 5 -9 9 -12 9 -20 0 -47 12
-47 21 0 6 -3 8 -6 5 -3 -4 -37 9 -74 28 -38 19 -73 34 -78 34 -4 0 -26 8 -48
19 -21 10 -79 33 -129 51 -49 18 -99 36 -110 41 -26 10 -165 51 -185 54 -8 1
-22 5 -30 8 -16 7 -167 44 -210 52 -14 3 -47 9 -75 15 -27 6 -63 12 -80 14
-16 3 -61 9 -98 16 -38 6 -92 13 -120 15 -29 3 -68 7 -87 10 -42 6 -160 14
-292 19 -54 3 -101 7 -106 10 -5 3 -11 3 -14 1z"/>
</g>
</svg>
