<svg viewBox="0 0 48 48" xmlns="http://www.w3.org/2000/svg" xmlns:xlink="http://www.w3.org/1999/xlink" width="48" height="48">
<defs>



 <path fill="#29d9c2" id="i-2157" d="M48,7v1H0V7c0-3.16,1.96-4,3-4h21c1.04,0,3,0.84,3,4c0-3.16,1.96-4,3-4h15C46.04,3,48,3.84,48,7z M45,1 c0.09,0,0.18,0,0.28,0.01C44.81,0.29,44.14,0,43.5,0h-12c-0.64,0-1.31,0.3-1.79,1.02C29.81,1,29.9,1,30,1H45z M24,1 c0.1,0,0.19,0,0.29,0.02C23.81,0.3,23.14,0,22.5,0h-18C3.86,0,3.19,0.29,2.72,1.01C2.82,1,2.91,1,3,1H24z M21,10v6.27 c0.6,0.351,1,0.99,1,1.73c0,1.1-0.9,2-2,2s-2-0.9-2-2c0-0.74,0.4-1.38,1-1.73V10H8v6.27C8.6,16.62,9,17.26,9,18c0,1.1-0.9,2-2,2 s-2-0.9-2-2c0-0.74,0.4-1.38,1-1.73V10H1.75C1.46,13.779,1,19.92,1,22c0,9.09,5.82,23.75,6.07,24.37l0.14,0.36l0.34,0.17 C7.65,46.939,9.81,48,13,48c3.11,0,6.19-1.01,6.31-1.05l0.45-0.15l0.17-0.43C20.18,45.75,26,31.09,26,22c0-2.08-0.46-8.221-0.75-12 H21z M43,10v4.21c0.6,0.34,1,0.979,1,1.72c0,1.11-0.9,2-2,2s-2-0.89-2-2c0-0.74,0.4-1.38,1-1.72V10h-8v4.21c0.6,0.34,1,0.979,1,1.72 c0,1.11-0.9,2-2,2s-2-0.89-2-2c0-0.74,0.4-1.38,1-1.72V10h-3.31C27.4,13.061,27,17.49,27,18.98c0,6.979,4.88,17.959,5.09,18.43 l0.13,0.311l0.3,0.159C32.61,37.92,34.61,39,37.11,39c2.43,0,5.13-1.02,5.25-1.07l0.38-0.14l0.17-0.38 C43.12,36.939,48,25.96,48,18.98c0-1.49-0.4-5.92-0.7-8.98H43z"/> 
</defs>

<use x="0" y="0" xlink:href="#i-2157"/>

</svg>