<svg viewBox="0 0 48 48" xmlns="http://www.w3.org/2000/svg" xmlns:xlink="http://www.w3.org/1999/xlink" width="48" height="48">
<defs>



 <path fill="#29d9c2" id="i-2160" d="M34,27c0,1.24-0.32,2.41-0.89,3.42c-0.32-0.82-0.73-1.62-1.221-2.391C31.96,27.689,32,27.35,32,27c0-2.76-2.24-5-5-5 s-5,2.24-5,5c0,1.65,0.82,3.13,2.08,4.04c-0.34,0.62-0.61,1.25-0.82,1.87C21.3,31.67,20,29.49,20,27c0-3.859,3.14-7,7-7 S34,23.141,34,27z M27,6c2.48,0,4.87,0.43,7.08,1.24C30.67,3.99,26.07,2,21,2C10.52,2,2,10.52,2,21c0,5.07,1.99,9.67,5.24,13.08 C6.43,31.87,6,29.48,6,27C6,15.42,15.42,6,27,6z M46,27c0,10.48-8.52,19-19,19S8,37.48,8,27S16.52,8,27,8S46,16.52,46,27z M33.8,32.88C35.17,31.3,36,29.25,36,27c0-4.96-4.04-9-9-9s-9,4.04-9,9c0,3.45,1.96,6.46,4.82,7.971 c-0.141,1.469,0.12,2.869,0.8,4.1c1.02,1.84,2.87,2.979,4.83,2.979c2.67,0,5.55-2.21,5.55-7.05C34,34.29,33.94,33.58,33.8,32.88z M29.665,28.345C30.809,29.854,32,32.111,32,35c0,3.488-1.781,5.051-3.546,5.051c-1.233,0-2.414-0.748-3.081-1.953 c-1.005-1.812-0.721-4.229,0.779-6.627c0.346-0.554,0.537-1.053,0.629-1.493C25.233,29.863,24,28.575,24,27c0-1.65,1.35-3,3-3 s3,1.35,3,3C30,27.485,29.872,27.938,29.665,28.345z M28.708,30.507c-0.145,0.634-0.416,1.313-0.86,2.022 c-1.566,2.508-1.029,4.051-0.726,4.6c0.314,0.568,0.825,0.922,1.332,0.922C29.379,38.051,30,36.824,30,35 C30,33.203,29.41,31.682,28.708,30.507z"/> 
</defs>

<use x="0" y="0" xlink:href="#i-2160"/>

</svg>