<svg viewBox="0 0 48 48" xmlns="http://www.w3.org/2000/svg" xmlns:xlink="http://www.w3.org/1999/xlink" width="48" height="48">
<defs>



 <path fill="#29d9c2" id="i-2165" d="M17.29,41c11.12-12.88,21.93-26.641,22.86-30.01c0.06-0.19,0.229-1.33,0.399-2.2c0.99-0.24,1.84-0.24,2.49,0.181 c0.35,0.219,0.75,0.629,0.89,1.379C43.98,10.54,44,10.76,44,11c0,1.84-10.26,19.88-16.28,30.311C27.18,41.109,26.6,41,26,41H17.29z M26,43H12c-1.65,0-3,1.35-3,3v2h20v-2C29,44.35,27.65,43,26,43z M12,41h2.65l1.13-1.311c0.17-0.189,0.33-0.39,0.5-0.58l-4.97-33.1 c0.65,0.01,1.28,0.04,1.88,0.08L19,35.92c0.56-0.66,1.11-1.32,1.65-1.96L15.28,6.34c0.72,0.12,1.4,0.26,2.05,0.43l4.92,25.28 c0.56-0.67,1.1-1.329,1.64-1.979L19.5,7.48c0.77,0.299,1.49,0.629,2.15,0.979l3.831,19.66c0.56-0.69,1.109-1.37,1.64-2.03 L23.96,9.84c0.68,0.46,1.31,0.91,1.92,1.35c0.12,0.09,0.24,0.17,0.351,0.261l2.46,12.659c0.579-0.719,1.119-1.42,1.64-2.09 l-1.76-9.029c0.689,0.38,1.399,0.68,2.13,0.85l1.189,6.15c0.19-0.24,0.37-0.48,0.54-0.721c0.23-0.299,0.45-0.6,0.67-0.899 c0.141-0.19,0.28-0.37,0.41-0.55l-0.76-3.9c0.57-0.1,1.2-0.29,1.86-0.54l0.449,2.29c0.301-0.43,0.591-0.84,0.851-1.22 c0.26-0.39,0.5-0.75,0.729-1.091v-0.01l-0.149-0.76c0.27-0.119,0.54-0.25,0.81-0.369l0.061-0.031c0.35-0.59,0.6-1.06,0.75-1.42 c0.02-0.06,0.05-0.109,0.06-0.16c0.021-0.06,0.04-0.109,0.05-0.149c0.03-0.11,0.07-0.39,0.13-0.72c0.011-0.061,0.021-0.131,0.03-0.2 c-0.61,0.26-1.25,0.55-1.92,0.86C34.83,11.15,32.97,12,32,12c-1.59,0-3.07-1.07-4.95-2.43c-2.98-2.15-6.98-5.03-14.05-5.5V3 c0-1.65-1.35-3-3-3H7C5.35,0,4,1.35,4,3v2h2.14l5.4,36.029C11.69,41.01,11.84,41,12,41z"/> 
</defs>

<use x="0" y="0" xlink:href="#i-2165"/>

</svg>