<svg viewBox="0 0 48 48" xmlns="http://www.w3.org/2000/svg" xmlns:xlink="http://www.w3.org/1999/xlink" width="48" height="48">
<defs>



 <path fill="#29d9c2" id="i-2167" d="M47.34,6.07C47.74,5.67,48,5.13,48,4.11C48,1.46,46.58,0,44,0c-1.08,0-1.62,0.27-2.061,0.72 C41.9,0.56,41.82,0.41,41.71,0.29c-0.37-0.37-1.05-0.37-1.42,0C40.109,0.48,40,0.73,40,1c0,0.26,0.109,0.52,0.29,0.71 c0.16,0.16,0.38,0.24,0.61,0.271C40.66,2.22,40.37,2.5,39.96,2.8c-0.04-0.189-0.12-0.37-0.25-0.51c-0.37-0.37-1.05-0.37-1.42,0 C38.109,2.48,38,2.74,38,3c0,0.27,0.109,0.52,0.29,0.7c0.09,0.09,0.2,0.17,0.319,0.22C38.4,4.15,38.17,4.41,37.939,4.7 c-0.049-0.15-0.119-0.3-0.229-0.41c-0.38-0.37-1.04-0.37-1.42,0C36.109,4.48,36,4.74,36,5s0.109,0.52,0.29,0.71 C36.48,5.9,36.74,6,37,6c0.05,0,0.09-0.02,0.13-0.03c-0.18,0.391-0.319,0.79-0.36,1.17c-0.02,0.24,0,0.45,0.041,0.641L26.2,18.39 c-0.431-0.05-0.9-0.069-1.42-0.069C17.96,18.32,0,22.84,0,33c0,8.27,6.73,15,15,15c4.59,0,8.71-3.85,11.609-10.85 C28.63,32.25,30,25.6,29.59,21.82L40.221,11.2c0.119,0.02,0.26,0.04,0.409,0.04c0.07,0,0.149,0,0.229-0.01 c0.381-0.04,0.781-0.181,1.17-0.36C42.02,10.91,42,10.95,42,11c0,0.27,0.109,0.52,0.29,0.71C42.48,11.89,42.74,12,43,12 s0.52-0.11,0.71-0.29C43.891,11.52,44,11.26,44,11s-0.109-0.52-0.29-0.71c-0.11-0.11-0.26-0.18-0.41-0.22 c0.29-0.23,0.55-0.46,0.78-0.681C44.13,9.5,44.2,9.61,44.29,9.7C44.48,9.89,44.73,10,45,10c0.26,0,0.52-0.11,0.71-0.29 C45.891,9.52,46,9.26,46,9s-0.109-0.52-0.29-0.71c-0.14-0.14-0.319-0.21-0.521-0.24c0.311-0.41,0.59-0.71,0.83-0.93 c0.03,0.21,0.121,0.43,0.271,0.59C46.48,7.89,46.74,8,47,8s0.52-0.11,0.71-0.29C47.891,7.52,48,7.26,48,7s-0.109-0.52-0.29-0.71 C47.6,6.19,47.471,6.12,47.34,6.07z M14.29,39.71l-6-6l1.42-1.42l6,6L14.29,39.71z M20,33c-2.76,0-5-2.24-5-5s2.24-5,5-5s5,2.24,5,5 S22.76,33,20,33z M41.71,7.71l-1.42-1.42l3-3l1.42,1.42L41.71,7.71z"/> 
</defs>

<use x="0" y="0" xlink:href="#i-2167"/>

</svg>