<svg viewBox="0 0 48 48" xmlns="http://www.w3.org/2000/svg" xmlns:xlink="http://www.w3.org/1999/xlink" width="48" height="48">
<defs>



 <path fill="#29d9c2" id="i-2158" d="M23.981,11c-11.028,0-20,8.973-20,20c0,0.066,0.007,0.133,0.019,0.195c0.023,3.412,0.641,5.74,1.839,6.92 C6.428,38.695,7.163,39,7.967,39c0.016,0,0.032,0,0.048,0c1.188-0.018,2.6-1.232,4.785-3.229c0.618-0.566,1.416-1.295,1.898-1.65 c0.124,0.116,0.263,0.238,0.413,0.364V35c0,0.316,0.149,0.613,0.403,0.803C17.501,37.281,20.271,38,23.981,38 s6.479-0.719,8.467-2.197c0.254-0.189,0.403-0.486,0.403-0.803v-0.515c0.151-0.127,0.292-0.251,0.417-0.368 c0.5,0.359,1.341,1.118,1.991,1.705c2.179,1.967,3.583,3.161,4.727,3.178c0.753-0.006,1.44-0.285,2.017-0.854 C43.254,36.914,44,34.242,44,31c0-0.066-0.007-0.131-0.02-0.193C43.871,19.868,34.938,11,23.981,11z M40.599,36.723 c-0.257,0.252-0.46,0.292-0.562,0.279c-0.586-0.092-2.44-1.766-3.437-2.664c-1.604-1.447-2.672-2.412-3.516-2.412 c-0.238,0-0.455,0.1-0.664,0.264c-0.039-0.028-0.075-0.061-0.119-0.083c-0.339-0.169-0.742-0.134-1.046,0.091 C29.647,33.394,27.2,34,23.981,34c-3.219,0-5.666-0.606-7.273-1.803c-0.304-0.227-0.709-0.26-1.046-0.091 c-0.043,0.022-0.079,0.054-0.118,0.082c-0.948-0.747-2.091,0.276-4.094,2.106C10.446,35.213,8.575,36.924,7.985,37 c-0.284,0.01-0.519-0.092-0.742-0.311C6.869,36.322,6,35.03,6,31c0-0.064-0.006-0.127-0.018-0.188C6.083,20.973,14.119,13,23.981,13 c9.916,0,17.991,8.07,18,18c0,0.062,0.006,0.125,0.018,0.184C41.973,33.705,41.417,35.916,40.599,36.723z M18.52,9.681 c-2.72,0.71-5.24,1.909-7.45,3.53C11.44,10.82,13.51,9,16,9C16.92,9,17.78,9.25,18.52,9.681z M10.08,23.11 C10.66,23.931,11,24.92,11,26c0,2.061-1.25,3.83-3.02,4.59C8.05,27.881,8.81,25.33,10.08,23.11z M36.94,13.26 c-2.221-1.629-4.75-2.859-7.48-3.559C30.2,9.25,31.07,9,32,9C34.51,9,36.59,10.851,36.94,13.26z M4.23,21.33 c-1.17,2.381-1.93,4.99-2.16,7.75C1.4,28.23,1,27.16,1,26C1,23.86,2.34,22.041,4.23,21.33z M47,26c0,1.19-0.42,2.28-1.11,3.141 c-0.22-2.79-0.989-5.439-2.18-7.84C45.63,22,47,23.84,47,26z M37.9,23.131c1.26,2.209,2,4.74,2.069,7.439 C38.22,29.791,37,28.041,37,26C37,24.931,37.33,23.94,37.9,23.131z M27.18,15.33c2.561,0.51,4.891,1.65,6.851,3.24 C33.41,18.851,32.72,19,32,19C29.7,19,27.76,17.44,27.18,15.33z M13.95,18.561c1.97-1.59,4.31-2.721,6.87-3.24 C20.24,17.44,18.3,19,16,19C15.27,19,14.58,18.84,13.95,18.561z"/> 
</defs>

<use x="0" y="0" xlink:href="#i-2158"/>

</svg>