<svg viewBox="0 0 48 48" xmlns="http://www.w3.org/2000/svg" xmlns:xlink="http://www.w3.org/1999/xlink" width="48" height="48">
<defs>



 <path fill="#29d9c2" id="i-2159" d="M2.416,19.741C2.145,21.119,1.999,22.543,1.999,24s0.146,2.881,0.417,4.259C0.974,27.381,0,25.809,0,24 S0.974,20.619,2.416,19.741z M41.848,11.169C41.938,10.792,42,10.404,42,10c0-2.757-2.243-5-5-5c-0.527,0-1.025,0.104-1.503,0.256 C37.984,6.789,40.143,8.805,41.848,11.169z M12.498,5.255C12.022,5.104,11.525,5,11,5c-2.757,0-5,2.243-5,5 c0,0.401,0.06,0.787,0.15,1.162C7.854,8.799,10.011,6.786,12.498,5.255z M28.26,2.418C27.382,0.976,25.809,0,24,0 s-3.381,0.975-4.259,2.418C21.119,2.146,22.542,2,23.999,2C25.457,2,26.881,2.146,28.26,2.418z M6.15,36.838 C6.06,37.213,6,37.599,6,38c0,2.757,2.243,5,5,5c0.525,0,1.022-0.104,1.498-0.255C10.011,41.214,7.854,39.201,6.15,36.838z M45.579,19.738c0.271,1.375,0.418,2.795,0.42,4.249c-0.002,1.464-0.149,2.893-0.424,4.276C47.021,27.387,48,25.812,48,24 C48,22.189,47.023,20.616,45.579,19.738z M19.741,45.582C20.619,47.025,22.191,48,24,48s3.383-0.976,4.261-2.419 C26.881,45.854,25.457,46,23.999,46C22.542,46,21.119,45.854,19.741,45.582z M23.999,4c-11.028,0-20,8.973-20,20s8.972,20,20,20 c11.017,0,19.989-8.967,20-20.011C43.987,12.967,35.016,4,23.999,4z M35.493,42.742C35.972,42.895,36.472,43,37,43 c2.757,0,5-2.243,5-5c0-0.406-0.062-0.797-0.154-1.176C40.141,39.191,37.981,41.209,35.493,42.742z"/> 
</defs>

<use x="0" y="0" xlink:href="#i-2159"/>

</svg>