<svg viewBox="0 0 48 48" xmlns="http://www.w3.org/2000/svg" xmlns:xlink="http://www.w3.org/1999/xlink" width="48" height="48">
<defs>



 <path fill="#29d9c2" id="i-2176" d="M47.83,6.6C47.64,6.12,46.99,5,45,5c-0.9,0-1.82,0.42-2.73,1.26L17.96,28.58l-3.16-3.17c8.23-7.42,11.34-7.43,12.58-7.43 l0.58,0.01c0.41,0,0.771-0.25,0.92-0.62c0.16-0.37,0.07-0.8-0.21-1.09L20.7,8.29c-0.29-0.28-0.72-0.37-1.09-0.22 c-0.37,0.16-0.62,0.52-0.62,0.92v0.33c0.04,1.99,0.14,7.26-16.73,26.01c0,0,0,0.01-0.01,0.01C1.12,36.47,0.02,37.69,0,39 c-0.02,1.69,2.25,3.98,3.99,4h0.03c1.36,0,2.48-1.1,3.55-2.16l12.94-11.89l1.64,1.62l-1.82,1.66c-0.02,0.02-0.04,0.039-0.06,0.06 C19.6,32.96,18.98,33,18.98,33c-0.41,0-0.77,0.24-0.93,0.62c-0.15,0.37-0.06,0.8,0.22,1.09l1,1c0.28,0.28,0.7,0.35,1.07,0.21 c0.37-0.14,0.62-0.5,0.64-0.9c0-0.02,0.04-0.63,0.64-1.26c0.02-0.01,0.03-0.02,0.05-0.04L45.62,11.74 C47.56,9.96,48.39,8.03,47.83,6.6z M6.29,39.29l-0.12,0.13C5.45,40.12,4.56,41,4.02,41C3.34,40.99,2,39.58,2,39.03 c0-0.011,0-0.011,0-0.011c0.01-0.619,1.24-1.84,1.7-2.31c0.01,0,0.02-0.02,0.03-0.03l0.01-0.01c0.74-0.82,1.46-1.6,2.15-2.35 l2.79,2.79L6.29,39.29z M10.15,35.75l-2.89-2.89c2.26-2.4,4.28-4.41,6.07-6.101l3.16,3.17L10.15,35.75z M23.63,29.21l-1.64-1.61 l1.13-1.04l1.63,1.62L23.63,29.21z M44.27,10.27L26.23,26.82l-1.641-1.61L43.62,7.73C44.13,7.26,44.63,7,45,7 c0.2,0,0.85,0.02,0.96,0.32C46.12,7.72,45.79,8.87,44.27,10.27z"/> 
</defs>

<use x="0" y="0" xlink:href="#i-2176"/>

</svg>