<svg viewBox="0 0 48 48" xmlns="http://www.w3.org/2000/svg" xmlns:xlink="http://www.w3.org/1999/xlink" width="48" height="48">
<defs>



 <path fill="#29d9c2" id="i-2172" d="M8.02,38.01c0,1.65,0.36,3.221,1.02,4.631c-0.76,0.9-1.48,1.84-2.13,2.799C6.9,45.5,6.89,45.58,6.88,45.65 C6.81,46.291,6.6,48,5,48c-1.26,0-5-3.75-5-5.02c0-1.6,1.72-1.801,2.36-1.871c0.08-0.01,0.15-0.01,0.2-0.02 c2.09-1.4,4.07-3.139,5.56-4.58C8.05,37,8.02,37.5,8.02,38.01z M48,14c0,1.551-0.45,2-2,2c-0.32,0-0.62-0.07-0.9-0.129 c-0.33-0.07-0.67-0.15-1.14-0.15c-2.652,0-7.342,2.635-13.986,7.838l4.531,4.533l0.785-0.791C36.15,26.43,37,25.561,37.02,24 c0.011-0.92-0.31-1.799-0.89-2.52c1.75-1.189,3.16-2.029,4.29-2.6c1.05,1.5,1.61,3.279,1.6,5.139c-0.02,3.391-1.85,5.221-3.31,6.682 l-0.788,0.807L39.414,33L36,36.414l-1.45-1.451l-1.567,1.605L34.414,38L31,41.414l-1.39-1.389l-1.566,1.605L29.414,43L26,46.414 l-1.376-1.375c-1.595,1.273-3.55,1.971-5.604,1.971c-4.96,0-9-4.029-9-9c0-2.053,0.698-4.008,1.972-5.604L10.586,31l1-1L10.5,28.914 l-0.793,0.793l-1.414-1.414l3-3l1.414,1.414L11.914,27.5L13,28.586l1-1l1.291,1.291c0.513-0.57,1.014-1.131,1.497-1.676L15.586,26 l1-1L15.5,23.914l-0.793,0.793l-1.414-1.414l3-3l1.414,1.414L16.914,22.5L18,23.586l1-1l0.963,0.963 c0.504-0.59,0.987-1.164,1.451-1.721L20.586,21l1-1L20.5,18.914l-0.793,0.793l-1.414-1.414l3-3l1.414,1.414L21.914,17.5L23,18.586 l1-1l0.468,0.469C33.072,7.047,32.426,4.195,32.13,2.9C32.07,2.621,32,2.32,32,2c0-1.549,0.45-2,2-2C36.56,0,48,10.09,48,14z M21.039,41.453l-5.458-5.459c-0.357,0.609-0.56,1.299-0.56,2.016c0,2.211,1.79,4,4,4C19.739,42.01,20.425,41.816,21.039,41.453z M26.125,36.539l-5.298-5.297c-0.546,0.484-1.109,0.99-1.673,1.498l5.392,5.393L26.125,36.539z M26.201,26.615 c-0.562,0.469-1.136,0.953-1.721,1.451l5.045,5.045l1.58-1.592L26.201,26.615z"/> 
</defs>

<use x="0" y="0" xlink:href="#i-2172"/>

</svg>