<svg viewBox="0 0 48 48" xmlns="http://www.w3.org/2000/svg" xmlns:xlink="http://www.w3.org/1999/xlink" width="48" height="48">
<defs>



 <path fill="#29d9c2" id="i-2192" d="M48,2v2H15.82C15.4,5.16,14.3,6,13,6c-1.65,0-3-1.35-3-3s1.35-3,3-3c1.3,0,2.4,0.84,2.82,2H48z M45,5 c-1.3,0-2.4,0.84-2.82,2H10v2h32.18c0.42,1.16,1.521,2,2.82,2c1.65,0,3-1.35,3-3S46.65,5,45,5z M40,17h8v23h-8v-2.609l-2,0.389V42 h-8v-2.65l-2,0.391V44h-8v-2.7l-2,0.39V46h-8v-2.74L8,43.65V48H0V9h8v3.35l2,0.391V11h8v3.311l2,0.39V13h8v3.26l2,0.391V15h8v3.221 l2,0.389V17z M5,42c0-0.55-0.45-1-1-1s-1,0.45-1,1s0.45,1,1,1S5,42.55,5,42z M5,14c0-0.55-0.45-1-1-1s-1,0.45-1,1s0.45,1,1,1 S5,14.55,5,14z M10,40.26L8,40.65v0.959l2-0.389V40.26z M10,17.779l-2-0.389v21.219l2-0.389V17.779z M10,14.779l-2-0.389v0.959 l2,0.391V14.779z M15,40c0-0.55-0.45-1-1-1s-1,0.45-1,1s0.45,1,1,1S15,40.55,15,40z M15,16c0-0.55-0.45-1-1-1s-1,0.45-1,1 s0.45,1,1,1S15,16.55,15,16z M20,38.3l-2,0.39v0.961l2-0.391V38.3z M20,19.74l-2-0.391V36.65l2-0.391V19.74z M20,16.74l-2-0.391 v0.961l2,0.39V16.74z M25,38c0-0.55-0.45-1-1-1s-1,0.45-1,1s0.45,1,1,1S25,38.55,25,38z M25,18c0-0.55-0.45-1-1-1s-1,0.45-1,1 s0.45,1,1,1S25,18.55,25,18z M30,36.35l-2,0.391v0.96l2-0.39V36.35z M30,21.689l-2-0.39v13.4l2-0.39V21.689z M30,18.689l-2-0.39 v0.96l2,0.391V18.689z M35,36c0-0.55-0.45-1-1-1s-1,0.45-1,1s0.45,1,1,1S35,36.55,35,36z M35,20c0-0.55-0.45-1-1-1s-1,0.45-1,1 s0.45,1,1,1S35,20.55,35,20z M40,34.391l-2,0.389v0.961l2-0.391V34.391z M40,23.65l-2-0.391v9.48l2-0.391V23.65z M40,20.65l-2-0.391 v0.961l2,0.389V20.65z M43,22c0,0.55,0.45,1,1,1s1-0.45,1-1s-0.45-1-1-1S43,21.45,43,22z M43,34c0,0.55,0.45,1,1,1s1-0.45,1-1 s-0.45-1-1-1S43,33.45,43,34z"/> 
</defs>

<use x="0" y="0" xlink:href="#i-2192"/>

</svg>