<svg xmlns="http://www.w3.org/2000/svg" width="24" height="24" viewBox="0 0 24 24"><path d="M14.016 11.484v-3H15v3h-.984zM3.984 6v14.016H18v1.969H3.984a1.981 1.981 0 0 1-1.969-1.969V6h1.969zM9 9.516V8.485h.984v1.031H9zm11.484-1.032v-1.5h-3v6h1.5v-1.969h1.5v-1.5h-1.5V8.484h1.5zm-3.984 3v-3c0-.844-.656-1.5-1.5-1.5h-2.484v6H15c.844 0 1.5-.656 1.5-1.5zm-5.016-1.968V8.485c0-.844-.656-1.5-1.5-1.5H7.5v6H9v-1.969h.984c.844 0 1.5-.656 1.5-1.5zm8.532-7.5c1.078 0 1.969.891 1.969 1.969v12c0 1.078-.891 2.016-1.969 2.016h-12C6.938 18.001 6 17.063 6 15.985v-12c0-1.078.938-1.969 2.016-1.969h12z"/></svg>