<?xml version="1.0" encoding="utf-8"?>
<!-- Generator: Adobe Illustrator 15.0.2, SVG Export Plug-In . SVG Version: 6.00 Build 0)  -->
<!DOCTYPE svg PUBLIC "-//W3C//DTD SVG 1.1//EN" "http://www.w3.org/Graphics/SVG/1.1/DTD/svg11.dtd">
<svg version="1.1" id="Ebene_1" xmlns="http://www.w3.org/2000/svg" xmlns:xlink="http://www.w3.org/1999/xlink" x="0px" y="0px"
	 width="93.459px" height="40.93px" viewBox="0 0 93.459 40.93" enable-background="new 0 0 93.459 40.93" xml:space="preserve">
<g>
	<g>
		<g>
			<g>
				<path d="M19.626,24.529h-8.699l-0.131-0.096C-3.427,14.085,1.864,0.843,1.919,0.711l0.128-0.308h17.72L19.626,24.529z
					 M11.253,23.529h7.379l0.129-22.126H2.726C2.012,3.419-1.138,14.42,11.253,23.529z"/>
			</g>
		</g>
		<g>
			<g>
				<path d="M19.549,40.527H7.667l-0.091-0.386c-0.068-0.288-1.598-7.142,3.833-14.609l0.15-0.206h7.989V40.527z M8.482,39.527
					h10.067V26.325H12.07C7.79,32.353,8.259,38.024,8.482,39.527z"/>
			</g>
		</g>
	</g>
</g>
<g>
	<path d="M27.099,17.456c0.581,0.342,1.026,0.824,1.336,1.448c0.309,0.624,0.464,1.352,0.464,2.184c0,0.801-0.16,1.504-0.48,2.112
		c-0.32,0.608-0.773,1.08-1.36,1.416c-0.587,0.336-1.264,0.504-2.032,0.504c-0.267,0-0.579-0.056-0.936-0.168
		c-0.358-0.112-0.696-0.28-1.016-0.504l-0.304,0.464h-0.864v-11.12l1.536-0.176v3.808c0.288-0.149,0.574-0.267,0.856-0.352
		c0.282-0.085,0.53-0.128,0.744-0.128C25.833,16.945,26.518,17.115,27.099,17.456z M26.723,23.049
		c0.405-0.508,0.608-1.155,0.608-1.945c0-0.853-0.2-1.541-0.6-2.063c-0.4-0.522-0.962-0.784-1.688-0.784
		c-0.629,0-1.163,0.187-1.6,0.56v4.464c0.448,0.353,0.981,0.528,1.6,0.528C25.758,23.809,26.317,23.555,26.723,23.049z"/>
	<path d="M31.027,18.848l-0.432-1.216c0.277-0.192,0.696-0.354,1.256-0.488c0.56-0.133,1.021-0.2,1.384-0.2
		c0.586,0,1.12,0.12,1.6,0.36c0.48,0.24,0.856,0.568,1.128,0.984s0.408,0.87,0.408,1.36v5.264h-1.072l-0.192-0.736
		c-0.288,0.256-0.64,0.475-1.056,0.656s-0.821,0.272-1.216,0.272c-0.886,0-1.558-0.222-2.016-0.664s-0.688-1.032-0.688-1.769
		c0-0.757,0.259-1.346,0.776-1.768c0.518-0.421,1.208-0.632,2.072-0.632h1.84c0-0.629-0.115-1.112-0.344-1.448
		c-0.229-0.336-0.632-0.504-1.208-0.504C32.563,18.321,31.816,18.496,31.027,18.848z M31.507,22.672
		c0,0.331,0.112,0.616,0.336,0.856c0.224,0.239,0.544,0.36,0.96,0.36c0.374,0,0.736-0.094,1.088-0.281
		c0.352-0.186,0.667-0.434,0.944-0.743v-1.568h-1.888c-0.448,0-0.8,0.134-1.056,0.4C31.635,21.963,31.507,22.288,31.507,22.672z"/>
	<path d="M43.779,23.281l0.464,1.104c-0.32,0.214-0.75,0.39-1.288,0.528s-0.989,0.208-1.352,0.208c-0.779,0-1.458-0.171-2.04-0.512
		c-0.582-0.342-1.029-0.821-1.344-1.44c-0.315-0.618-0.472-1.333-0.472-2.145c0-0.799,0.16-1.509,0.48-2.127
		c0.32-0.618,0.776-1.098,1.368-1.44c0.592-0.341,1.282-0.512,2.072-0.512c0.352,0,0.794,0.072,1.328,0.216
		c0.533,0.144,0.96,0.323,1.28,0.536l-0.448,1.088c-0.438-0.181-0.808-0.314-1.112-0.4c-0.304-0.085-0.659-0.128-1.064-0.128
		c-0.704,0-1.267,0.261-1.688,0.784c-0.421,0.523-0.637,1.179-0.648,1.968c0,0.832,0.203,1.507,0.608,2.024s0.965,0.776,1.68,0.776
		c0.438,0,0.816-0.043,1.136-0.129C43.059,23.595,43.406,23.461,43.779,23.281z"/>
	<path d="M47.347,22.128v2.784h-1.536v-11.12l1.536-0.176v6.704l3.456-3.376l0.896,1.024l-2.304,2.208l3.088,4.736h-1.792
		l-2.352-3.744L47.347,22.128z"/>
	<path d="M53.027,24.416l0.48-1.072c0.725,0.353,1.418,0.528,2.08,0.528c0.512,0,0.92-0.091,1.224-0.272
		c0.304-0.181,0.456-0.421,0.456-0.72c0-0.533-0.576-0.981-1.728-1.344c-1.696-0.555-2.544-1.333-2.544-2.336
		c0-0.704,0.264-1.256,0.792-1.656c0.528-0.4,1.245-0.6,2.152-0.6c0.362,0,0.792,0.069,1.288,0.208s0.898,0.314,1.208,0.528
		l-0.48,1.04c-0.374-0.17-0.715-0.301-1.024-0.392c-0.31-0.09-0.651-0.136-1.024-0.136c-0.405,0-0.739,0.094-1,0.28
		s-0.392,0.418-0.392,0.696c0.01,0.214,0.152,0.411,0.424,0.592s0.664,0.357,1.176,0.528c1.75,0.629,2.624,1.467,2.624,2.513
		c0,0.735-0.272,1.306-0.816,1.711S56.6,25.12,55.587,25.12c-0.374,0-0.819-0.064-1.336-0.192
		C53.733,24.8,53.325,24.63,53.027,24.416z"/>
	<path d="M62.099,17.248h1.408l0.48,1.168h-1.888v4.096c0,0.416,0.091,0.744,0.272,0.984s0.458,0.359,0.832,0.359
		c0.192,0,0.442-0.058,0.752-0.176l0.4,1.168c-0.16,0.086-0.366,0.163-0.616,0.232c-0.251,0.069-0.483,0.104-0.696,0.104
		c-0.768,0-1.374-0.211-1.816-0.633c-0.442-0.421-0.664-1.021-0.664-1.8v-4.336h-1.088l-0.016-1.168h1.104v-1.936l1.536-0.352
		V17.248z"/>
	<path d="M66.322,18.848l-0.432-1.216c0.277-0.192,0.696-0.354,1.256-0.488c0.56-0.133,1.021-0.2,1.384-0.2
		c0.586,0,1.119,0.12,1.6,0.36c0.48,0.24,0.855,0.568,1.128,0.984c0.271,0.416,0.408,0.87,0.408,1.36v5.264h-1.072l-0.193-0.736
		c-0.287,0.256-0.64,0.475-1.056,0.656s-0.821,0.272-1.216,0.272c-0.886,0-1.558-0.222-2.016-0.664s-0.688-1.032-0.688-1.769
		c0-0.757,0.259-1.346,0.776-1.768c0.518-0.421,1.208-0.632,2.072-0.632h1.841c0-0.629-0.115-1.112-0.345-1.448
		s-0.632-0.504-1.208-0.504C67.858,18.321,67.111,18.496,66.322,18.848z M66.802,22.672c0,0.331,0.112,0.616,0.336,0.856
		c0.225,0.239,0.544,0.36,0.96,0.36c0.373,0,0.736-0.094,1.088-0.281c0.353-0.186,0.667-0.434,0.944-0.743v-1.568h-1.888
		c-0.448,0-0.801,0.134-1.056,0.4C66.93,21.963,66.802,22.288,66.802,22.672z"/>
	<path d="M80.146,25.601c0,0.575-0.146,1.09-0.439,1.544c-0.293,0.453-0.717,0.808-1.271,1.063s-1.223,0.384-2,0.384
		c-0.375,0-0.844-0.071-1.408-0.216c-0.566-0.144-1.014-0.328-1.344-0.552l0.463-1.104c0.533,0.235,0.936,0.397,1.209,0.488
		c0.271,0.091,0.615,0.136,1.031,0.136c0.662,0,1.195-0.151,1.6-0.456c0.406-0.304,0.609-0.738,0.609-1.304v-1.008
		c-0.289,0.171-0.588,0.304-0.896,0.4c-0.311,0.096-0.576,0.144-0.801,0.144c-0.789,0-1.475-0.171-2.055-0.512
		c-0.582-0.342-1.027-0.824-1.336-1.448c-0.311-0.624-0.465-1.352-0.465-2.184c0-0.8,0.16-1.504,0.48-2.112s0.773-1.08,1.359-1.416
		s1.264-0.504,2.031-0.504c0.277,0,0.609,0.064,0.992,0.192c0.385,0.128,0.736,0.314,1.057,0.56l0.305-0.544h0.879V25.601z
		 M77.825,23.649c0.268-0.107,0.523-0.272,0.77-0.496v-4.288c-0.246-0.213-0.504-0.368-0.777-0.464
		c-0.271-0.096-0.578-0.144-0.92-0.144c-0.715,0-1.273,0.253-1.68,0.76c-0.404,0.507-0.607,1.155-0.607,1.944
		c0,0.854,0.199,1.542,0.6,2.063c0.4,0.523,0.963,0.785,1.688,0.785C77.251,23.809,77.56,23.755,77.825,23.649z"/>
	<path d="M88.786,20.96v0.416h-5.504c0.063,0.758,0.307,1.354,0.727,1.792c0.422,0.438,1.049,0.656,1.881,0.656
		c0.404,0,0.76-0.051,1.064-0.152c0.303-0.102,0.729-0.279,1.271-0.535l0.48,1.119c-0.939,0.565-1.877,0.849-2.816,0.849
		c-1.355,0-2.395-0.368-3.119-1.104c-0.727-0.736-1.088-1.729-1.088-2.977c0-0.799,0.148-1.509,0.447-2.127
		c0.299-0.618,0.729-1.098,1.287-1.44c0.561-0.341,1.219-0.512,1.977-0.512c1.119,0,1.965,0.376,2.535,1.128
		C88.501,18.824,88.786,19.787,88.786,20.96z M83.313,20.336h3.984c-0.203-1.386-0.854-2.08-1.953-2.08
		c-0.586,0-1.053,0.184-1.398,0.552C83.599,19.177,83.388,19.686,83.313,20.336z"/>
</g>
</svg>
